<svg><path d="M2.87814 4.99046C2.87814 3.01064 1.8749 1.37442 0 0H4.35833C5.88785 1.17807 6.8253 2.97791 6.8253 4.99046C6.8253 7.003 5.88785 8.80284 4.35833 9.98091C5.77273 10.5699 6.57861 12.0098 6.57861 14.0714V17.9984H2.63144V14.0714C2.63144 12.108 1.69399 10.7336 0 9.98091C1.8749 8.60649 2.87814 6.97028 2.87814 4.99046ZM11.4303 4.99046C11.4303 3.01064 10.4271 1.37442 8.55219 0H12.9105C14.44 1.17807 15.3775 2.97791 15.3775 4.99046C15.3775 7.003 14.44 8.80284 12.9105 9.98091C14.3249 10.5699 15.1308 12.0098 15.1308 14.0714V17.9984H11.1836V14.0714C11.1836 12.108 10.2462 10.7336 8.55219 9.98091C10.4271 8.60649 11.4303 6.97028 11.4303 4.99046ZM19.9842 4.99046C19.9842 3.01064 18.9809 1.37442 17.106 0H21.4643C22.9939 1.17807 23.9313 2.97791 23.9313 4.99046C23.9313 7.003 22.9939 8.80284 21.4643 9.98091C22.8787 10.5699 23.6846 12.0098 23.6846 14.0714V17.9984H19.7375V14.0714C19.7375 12.108 18.8 10.7336 17.106 9.98091C18.9809 8.60649 19.9842 6.97028 19.9842 4.99046Z"></path></svg>